<svg xmlns="http://www.w3.org/2000/svg" viewBox="0 0 64 64">
  <defs>
    <linearGradient id="bg" x1="8" y1="0" x2="56" y2="64" gradientUnits="userSpaceOnUse">
      <stop offset="0" stop-color="#19b8a8"/>
      <stop offset="1" stop-color="#075f58"/>
    </linearGradient>
    <linearGradient id="cape" x1="0" y1="0" x2="0" y2="1">
      <stop offset="0" stop-color="#ffd25e"/>
      <stop offset="1" stop-color="#f08a2c"/>
    </linearGradient>
  </defs>
  <rect width="64" height="64" rx="18" fill="url(#bg)"/>
  <path d="M10 41c8 7 16 9 22 9s14-2 22-9" fill="none" stroke="#fff" stroke-opacity=".28" stroke-width="2.4" stroke-linecap="round"/>
  <path d="M31 23.5C25 19.2 17.5 18.4 11.5 20v26c6-1.5 13.5-.8 19.5 3.3Z" fill="#fff"/>
  <path d="M33 23.5c6-4.3 13.500-5.100 19.500-3.500v26c-6-1.500-13.500-.8-19.500 3.300Z" fill="#fff" fill-opacity=".9"/>
  <path d="M16.500 28.500h9M16.500 33.500h9M16.500 38.500h5.500" stroke="#0d8f84" stroke-opacity=".38" stroke-width="2.4" stroke-linecap="round"/>
  <path d="m38 35.500 4 4 8-9.500" fill="none" stroke="#0d8f84" stroke-width="3.600" stroke-linecap="round" stroke-linejoin="round"/>
  <path d="M28.800 8.500h6.400c-.5 6.500 1.800 12.500.5 19.500L32 24.600 28.300 28c-1.300-7 1-13 .5-19.500Z" fill="url(#cape)"/>
  <path d="M28.800 8.500h6.400" stroke="#fff" stroke-opacity=".6" stroke-width="1.400" stroke-linecap="round"/>
</svg>
