<svg xmlns="http://www.w3.org/2000/svg" viewBox="0 0 64 64">
  <defs>
    <linearGradient id="bg" x1="6" y1="0" x2="58" y2="64" gradientUnits="userSpaceOnUse">
      <stop offset="0" stop-color="#4d7bff"/>
      <stop offset="1" stop-color="#1a35a8"/>
    </linearGradient>
  </defs>
  <rect width="64" height="64" rx="18" fill="url(#bg)"/>
  <path d="M16 19h32a3 3 0 0 1 3 3v15c0 8-8 14-19 19C21 51 13 45 13 37V22a3 3 0 0 1 3-3Z" fill="#fff"/>
  <path d="M16 19h32a3 3 0 0 1 3 3v6H13v-6a3 3 0 0 1 3-3Z" fill="#cfdcff"/>
  <path d="M22 14v7M32 14v7M42 14v7" stroke="#ffc83d" stroke-width="3.600" stroke-linecap="round"/>
  <path d="m23 38.500 6.500 6.500L42 32" fill="none" stroke="#2f5df0" stroke-width="4.800" stroke-linecap="round" stroke-linejoin="round"/>
</svg>
